<?xml version="1.0" standalone="no"?>
<!DOCTYPE svg PUBLIC "-//W3C//DTD SVG 20010904//EN"
 "http://www.w3.org/TR/2001/REC-SVG-20010904/DTD/svg10.dtd">
<svg version="1.0" xmlns="http://www.w3.org/2000/svg"
 width="512.000000pt" height="512.000000pt" viewBox="0 0 512.000000 512.000000"
 preserveAspectRatio="xMidYMid meet">

<g transform="translate(0.000000,512.000000) scale(0.100000,-0.100000)"
fill="#000000" stroke="none">
<path d="M4153 5111 c-121 -31 -205 -139 -205 -265 0 -60 -1 -62 -50 -110 -30
-30 -64 -77 -82 -115 -27 -58 -31 -76 -30 -151 1 -109 27 -180 94 -253 53 -58
120 -99 192 -117 41 -11 47 -15 43 -34 -6 -23 -105 -518 -105 -523 0 -1 -18
-7 -41 -13 -22 -6 -46 -13 -54 -16 -9 -4 -16 9 -24 44 -28 134 -109 272 -214
367 -51 47 -185 126 -247 147 -11 3 -11 9 3 28 23 32 21 62 -4 94 -13 17 -30
26 -48 26 -16 0 -94 -25 -175 -54 l-147 -55 -130 50 c-72 27 -142 49 -156 49
-30 0 -73 -42 -73 -72 0 -13 22 -58 49 -101 l49 -78 -58 -58 c-121 -120 -189
-270 -198 -433 -4 -92 -6 -96 -29 -101 -14 -2 -33 3 -47 14 -21 16 -22 22 -15
81 21 175 -45 365 -177 507 -39 42 -54 67 -54 87 0 54 -31 159 -68 234 -68
140 -223 268 -380 314 -184 54 -389 13 -548 -107 -34 -26 -77 -67 -95 -91 -47
-62 -94 -69 -177 -27 -125 63 -296 82 -431 47 -210 -54 -392 -235 -446 -446
-21 -80 -22 -235 -1 -308 14 -52 14 -54 -15 -116 -97 -207 -68 -466 73 -647
15 -20 28 -40 28 -43 0 -3 -27 -6 -59 -6 -52 0 -62 -3 -80 -26 l-21 -27 0
-1379 0 -1379 25 -24 24 -25 438 0 c375 1 441 3 458 16 18 13 21 30 25 162 l5
147 1583 3 1582 2 0 -118 c0 -127 9 -177 37 -198 15 -11 103 -13 456 -14 l438
0 24 25 25 24 0 1379 0 1379 -21 27 -20 26 -209 0 -208 0 1 103 c1 120 -13
186 -60 283 -32 68 -110 162 -161 197 l-24 15 46 226 c25 124 46 229 46 232 0
4 25 3 55 -1 138 -17 277 79 300 207 6 32 11 37 49 47 90 22 173 104 197 195
32 117 -34 257 -144 307 -22 10 -24 17 -25 77 -1 216 -188 387 -404 369 -37
-3 -89 -15 -115 -27 l-47 -21 -49 21 c-55 24 -128 33 -174 21z m156 -187 c24
-19 49 -34 56 -34 6 0 31 13 56 29 88 56 165 64 242 25 103 -52 148 -148 122
-261 -21 -89 1 -133 67 -133 37 0 88 -37 104 -77 21 -48 11 -92 -27 -129 -28
-27 -36 -29 -106 -29 -94 -1 -103 -10 -103 -106 0 -58 -4 -72 -26 -98 -45 -54
-120 -59 -180 -12 -15 12 -39 21 -54 21 -55 0 -65 -26 -125 -317 -30 -149 -55
-273 -55 -275 0 -3 -109 17 -116 21 -1 1 26 138 61 306 34 167 60 316 57 330
-7 38 -39 55 -101 55 -148 0 -241 87 -241 226 1 96 44 165 138 216 37 20 50
58 33 103 -29 82 5 158 79 174 48 10 68 4 119 -35z m-2624 -455 c163 -30 296
-142 356 -299 l20 -53 -23 7 c-124 36 -233 44 -331 25 l-56 -12 -61 56 c-74
69 -131 103 -229 138 l-74 26 35 26 c45 34 136 76 190 86 62 13 106 12 173 0z
m-885 -191 l25 -9 -30 -21 c-71 -50 -157 -153 -198 -239 l-42 -86 -50 -10
c-82 -18 -163 -53 -231 -99 l-64 -44 0 69 c0 215 151 397 371 446 66 15 170
12 219 -7z m512 -89 c85 -28 156 -76 219 -148 29 -34 61 -63 69 -66 9 -3 52 4
95 15 129 33 230 22 352 -37 129 -64 234 -214 252 -364 6 -41 8 -75 6 -77 -2
-2 -17 6 -33 18 -41 31 -80 29 -109 -4 -28 -33 -28 -41 -3 -136 28 -105 27
-106 -28 -124 -116 -39 -266 -166 -340 -289 -83 -137 -122 -361 -86 -489 5
-16 -5 -18 -105 -18 -96 0 -110 2 -115 18 -3 9 -13 57 -22 106 -17 86 -17 90
1 100 180 106 250 209 179 265 -15 12 -35 21 -46 21 -10 0 -50 -29 -88 -65
-38 -36 -75 -65 -82 -65 -9 0 -23 48 -44 153 l-30 152 86 42 c124 61 270 200
270 258 0 69 -89 101 -132 48 -53 -66 -138 -140 -191 -167 -32 -16 -59 -27
-61 -25 -2 2 -18 81 -36 174 -18 94 -39 184 -46 202 -14 37 -51 51 -93 37 -52
-19 -53 -41 -12 -251 l38 -193 -38 0 c-67 0 -142 21 -225 62 -76 38 -83 40
-110 27 -35 -17 -52 -58 -38 -96 21 -60 237 -143 374 -143 l67 0 28 -147 c15
-82 30 -154 33 -161 7 -20 -60 -5 -131 29 -64 30 -88 28 -117 -9 -39 -49 -20
-91 59 -132 49 -25 144 -50 187 -50 30 0 33 -3 42 -47 6 -27 13 -69 17 -95 l7
-48 -181 0 -181 0 0 179 c0 175 -1 180 -22 195 -19 14 -63 16 -277 16 l-254 0
-46 29 c-164 106 -250 311 -210 503 41 196 205 348 409 379 41 6 82 15 92 20
9 5 26 39 38 76 51 159 156 268 308 320 90 30 217 32 304 2z m1857 -233 c-25
-42 -21 -70 17 -115 l26 -31 -74 2 c-68 3 -76 1 -112 -27 l-40 -30 7 25 c22
75 20 116 -7 158 -14 23 -26 44 -26 46 0 3 16 -2 35 -10 46 -19 80 -18 140 5
28 11 51 18 53 16 2 -1 -7 -19 -19 -39z m286 -61 c91 -44 153 -99 208 -183 54
-83 74 -132 88 -222 l11 -71 -56 -59 c-77 -84 -126 -192 -171 -375 -4 -17
-123 -73 -190 -90 -76 -19 -175 -19 -250 0 -72 19 -76 23 -116 92 -17 31 -65
90 -106 131 l-75 74 41 42 c51 52 55 93 14 126 -23 18 -38 21 -95 18 -53 -2
-68 0 -71 12 -8 30 12 156 33 212 23 63 102 188 107 171 2 -5 -9 -57 -25 -114
-31 -109 -30 -138 6 -165 36 -28 65 -15 187 78 135 103 109 96 312 82 89 -6
92 -6 117 19 42 42 35 72 -39 160 -94 114 -75 132 70 62z m731 -506 c216 -40
351 -233 328 -466 l-7 -63 -157 0 c-217 0 -204 14 -208 -214 l-4 -176 -251 0
-252 0 7 131 c4 72 9 134 13 137 3 3 59 -4 124 -17 92 -18 124 -20 140 -12 25
14 41 42 41 73 0 49 -21 60 -156 87 l-129 26 3 30 c2 17 12 63 23 103 50 190
160 316 309 356 68 18 100 19 176 5z m-1789 -145 c46 -35 47 -35 122 -29 l76
7 -36 -35 c-47 -43 -54 -67 -34 -112 8 -21 15 -41 15 -46 0 -4 -30 3 -67 17
l-67 25 -53 -19 c-29 -11 -53 -18 -53 -15 0 2 13 23 29 46 40 59 44 78 27 141
-8 31 -12 56 -10 56 2 0 25 -16 51 -36z m-243 -151 c-57 -86 -124 -197 -124
-205 0 -15 22 -52 39 -65 26 -20 49 -16 197 37 l140 51 122 -45 c139 -52 183
-57 206 -24 23 33 20 66 -14 148 -17 40 -29 75 -27 77 7 7 82 -59 115 -100 91
-113 126 -221 120 -370 -2 -56 -7 -108 -11 -114 -6 -10 -124 -13 -532 -13
l-524 0 -8 48 c-30 176 26 359 147 483 43 44 149 118 169 119 2 0 -5 -12 -15
-27z m1339 -473 l-8 -145 -209 -3 -209 -2 7 31 c3 17 6 78 6 135 l0 103 93 -6
c94 -6 220 12 291 41 22 9 32 9 34 2 1 -6 -1 -76 -5 -156z m-2673 -30 l0 -120
-335 0 -335 0 0 120 0 120 335 0 335 0 0 -120z m4150 0 l0 -120 -340 0 -340 0
0 120 0 120 340 0 340 0 0 -120z m0 -525 l0 -255 -2410 0 -2410 0 0 255 0 255
2410 0 2410 0 0 -255z m0 -670 l0 -255 -2410 0 -2410 0 0 255 0 255 2410 0
2410 0 0 -255z m0 -660 l0 -255 -2410 0 -2410 0 0 255 0 255 2410 0 2410 0 0
-255z m-4150 -495 l0 -90 -335 0 -335 0 0 90 0 90 335 0 335 0 0 -90z m4150 0
l0 -90 -340 0 -340 0 0 83 c0 46 3 87 7 90 3 4 156 7 340 7 l333 0 0 -90z"/>
<path d="M455 2128 c-29 -16 -35 -28 -35 -69 0 -44 25 -69 68 -69 66 0 95 78
47 125 -26 27 -49 31 -80 13z"/>
<path d="M4580 2127 c-14 -7 -28 -27 -34 -45 -21 -74 76 -125 124 -65 23 29
22 76 -3 100 -20 19 -60 24 -87 10z"/>
<path d="M437 1452 c-17 -19 -23 -78 -9 -98 10 -15 47 -34 67 -34 26 0 65 46
65 78 0 61 -84 98 -123 54z"/>
<path d="M4560 1443 c-40 -51 -9 -117 55 -117 41 0 62 18 71 59 8 44 -26 85
-71 85 -25 0 -39 -7 -55 -27z"/>
<path d="M447 790 c-33 -26 -38 -87 -9 -113 25 -23 78 -21 102 3 61 61 -25
163 -93 110z"/>
<path d="M4580 797 c-14 -7 -28 -27 -34 -45 -7 -27 -6 -38 11 -60 28 -38 87
-38 116 0 45 60 -25 140 -93 105z"/>
</g>
</svg>
